<svg xmlns="http://www.w3.org/2000/svg" viewBox="0 0 800 800">
  <path fill="#CCCCCC" stroke="#FFFFFF" stroke-width="1" d="M 641.15,260.90 L 639.17,260.25 L 638.44,260.17 L 637.77,260.29 L 637.15,259.97 L 636.74,260.09 L 636.33,260.77 L 636.57,261.65 L 636.43,262.36 L 636.52,263.12 L 635.91,263.52 L 635.74,263.85 L 635.38,264.04 L 635.28,264.37 L 635.54,264.71 L 635.23,265.40 L 635.43,266.17 L 634.70,266.32 L 634.69,267.26 L 634.06,267.31 L 632.85,266.82 L 632.61,266.47 L 631.91,266.28 L 631.59,266.41 L 630.56,265.95 L 630.14,266.91 L 629.79,266.78 L 629.05,267.09 L 628.76,267.68 L 628.76,268.01 L 627.88,268.26 L 627.30,268.26 L 626.93,267.65 L 626.27,267.23 L 625.97,267.39 L 625.14,267.19 L 624.90,266.92 L 624.94,266.53 L 624.64,266.27 L 624.10,265.48 L 624.60,265.27 L 625.10,264.76 L 625.11,264.40 L 624.68,264.09 L 623.72,264.03 L 623.45,263.83 L 622.78,264.03 L 622.44,263.94 L 621.43,264.11 L 620.78,263.91 L 619.74,264.16 L 619.10,263.32 L 618.81,263.08 L 617.37,262.61 L 617.10,262.41 L 616.38,262.45 L 615.67,261.98 L 614.95,261.66 L 614.68,261.39 L 613.99,261.22 L 612.73,261.44 L 612.76,261.08 L 612.44,260.47 L 612.60,259.92 L 612.93,259.73 L 613.44,259.01 L 613.43,258.65 L 613.93,258.11 L 613.60,257.97 L 613.68,257.60 L 613.04,257.35 L 612.69,257.43 L 612.05,257.10 L 612.37,256.46 L 612.52,255.82 L 612.06,255.53 L 612.86,254.44 L 613.88,254.04 L 613.55,253.75 L 613.18,253.73 L 612.44,253.46 L 612.59,252.77 L 613.16,252.38 L 613.01,252.08 L 612.14,251.50 L 611.13,251.06 L 610.85,250.81 L 610.86,250.46 L 610.23,250.08 L 610.18,249.37 L 610.49,248.87 L 609.92,248.45 L 609.99,248.12 L 609.64,247.93 L 609.49,247.23 L 608.82,247.11 L 608.92,246.27 L 609.67,246.11 L 609.81,245.77 L 609.60,245.05 L 609.83,244.78 L 610.70,244.24 L 610.92,243.93 L 610.74,243.63 L 611.23,242.75 L 611.56,242.58 L 611.65,242.18 L 611.20,241.56 L 611.30,241.24 L 612.01,241.10 L 613.04,239.97 L 613.49,240.01 L 613.73,239.77 L 613.85,239.05 L 614.35,238.46 L 614.33,237.74 L 614.13,237.05 L 613.76,236.43 L 613.42,236.47 L 613.06,235.89 L 613.02,235.52 L 613.67,235.34 L 613.98,234.81 L 614.98,233.82 L 615.06,233.43 L 614.09,232.90 L 613.73,232.95 L 613.17,232.57 L 613.21,231.91 L 613.06,231.19 L 613.63,230.77 L 614.13,230.79 L 614.43,230.61 L 615.26,231.23 L 616.21,230.99 L 616.24,230.62 L 615.60,229.49 L 615.37,228.85 L 615.52,228.39 L 615.21,228.18 L 615.16,227.74 L 615.29,226.97 L 615.24,226.55 L 615.47,226.29 L 615.34,225.97 L 615.45,225.26 L 615.18,224.61 L 615.24,224.26 L 616.12,223.67 L 616.25,223.00 L 615.99,222.64 L 615.99,222.24 L 616.37,221.65 L 615.99,221.50 L 615.70,221.02 L 616.49,220.58 L 616.60,220.15 L 617.37,219.40 L 618.09,219.31 L 618.39,218.68 L 618.76,218.57 L 619.54,219.44 L 620.45,219.57 L 621.13,219.46 L 621.83,219.08 L 622.16,219.07 L 622.81,218.45 L 623.60,218.42 L 623.91,218.13 L 623.67,217.49 L 624.91,216.85 L 626.12,216.53 L 626.82,216.60 L 627.47,216.36 L 627.69,216.08 L 629.05,215.19 L 629.75,215.25 L 630.16,214.67 L 630.78,214.44 L 631.38,214.81 L 631.44,215.19 L 631.92,215.83 L 632.94,215.45 L 633.33,214.83 L 633.84,214.93 L 634.83,214.41 L 635.97,214.29 L 637.07,214.77 L 637.31,215.01 L 638.07,215.28 L 638.98,214.81 L 639.57,214.40 L 639.57,213.68 L 640.06,213.13 L 640.91,212.85 L 641.36,212.81 L 642.43,212.35 L 642.90,211.83 L 643.50,212.62 L 643.85,212.76 L 644.15,213.20 L 644.10,213.49 L 645.21,214.46 L 645.26,214.95 L 645.72,215.17 L 645.85,216.00 L 646.24,216.25 L 646.46,216.72 L 647.27,217.70 L 647.80,218.93 L 647.70,219.39 L 647.19,219.39 L 646.55,220.04 L 646.77,220.59 L 647.89,220.83 L 648.70,221.24 L 649.16,221.92 L 649.10,222.25 L 648.27,222.26 L 647.66,222.96 L 647.58,223.28 L 647.84,224.24 L 648.37,224.76 L 649.33,225.14 L 649.57,225.60 L 650.57,226.45 L 651.27,226.43 L 651.83,227.16 L 651.98,228.25 L 651.91,228.59 L 651.49,228.58 L 651.38,229.36 L 651.70,229.77 L 651.90,230.36 L 652.41,230.56 L 652.70,231.21 L 652.52,231.81 L 653.09,232.68 L 652.83,232.94 L 653.01,233.43 L 652.85,233.75 L 653.25,234.09 L 652.98,234.62 L 653.09,235.12 L 652.78,235.56 L 652.87,236.29 L 652.59,236.49 L 652.38,237.12 L 652.93,237.11 L 652.57,237.89 L 652.76,238.51 L 652.32,238.94 L 652.41,239.16 L 652.16,239.64 L 651.55,240.06 L 652.00,240.46 L 652.65,239.58 L 652.93,239.43 L 653.88,238.17 L 654.37,238.49 L 654.20,239.45 L 654.44,240.40 L 654.26,240.69 L 654.66,240.90 L 655.29,240.86 L 655.62,241.25 L 655.74,241.93 L 655.35,242.22 L 654.84,242.30 L 654.39,242.54 L 654.36,243.05 L 653.70,243.54 L 653.78,244.03 L 653.13,243.90 L 652.46,243.95 L 651.93,244.16 L 651.84,244.40 L 652.63,245.37 L 652.92,245.05 L 653.44,244.84 L 653.78,244.39 L 654.54,243.89 L 654.91,243.90 L 655.38,244.40 L 655.01,244.79 L 654.69,246.04 L 653.74,246.13 L 653.39,246.32 L 652.54,245.88 L 651.89,246.64 L 651.34,247.11 L 651.63,247.62 L 652.18,247.36 L 652.33,247.56 L 651.96,248.12 L 651.37,248.39 L 650.55,248.12 L 650.57,248.44 L 649.95,248.73 L 650.20,249.11 L 650.82,248.88 L 651.48,249.02 L 652.01,248.75 L 652.55,248.73 L 652.71,248.93 L 652.34,249.56 L 651.97,249.43 L 650.74,249.69 L 650.28,249.68 L 650.19,250.04 L 650.91,250.45 L 650.88,251.11 L 650.23,250.90 L 649.92,250.95 L 650.14,251.54 L 650.74,252.04 L 651.45,251.73 L 651.84,252.54 L 651.32,252.53 L 649.85,253.29 L 648.99,253.08 L 649.45,253.76 L 650.77,253.79 L 650.73,254.08 L 649.47,254.83 L 648.24,254.78 L 647.94,255.06 L 648.48,255.42 L 649.18,255.68 L 649.14,256.06 L 650.06,255.96 L 650.58,256.40 L 649.79,256.75 L 649.48,256.99 L 648.62,256.47 L 648.05,256.51 L 647.25,256.14 L 647.12,257.06 L 647.53,257.45 L 648.20,257.41 L 649.05,257.54 L 649.19,257.87 L 648.36,258.02 L 647.38,257.98 L 647.28,258.24 L 648.32,258.69 L 648.49,258.95 L 647.98,259.13 L 647.35,259.18 L 646.59,259.08 L 646.52,258.66 L 645.50,259.28 L 644.39,259.15 L 644.53,258.14 L 644.14,258.19 L 644.24,258.57 L 643.74,259.11 L 644.47,259.55 L 644.87,260.12 L 644.65,260.32 L 643.84,260.02 L 643.79,260.47 L 643.37,260.77 L 643.51,261.13 L 644.16,261.14 L 643.83,261.76 L 643.26,261.69 L 642.85,260.99 L 642.47,260.85 L 642.30,260.31 L 642.75,260.01 L 642.41,259.79 L 641.54,259.71 L 640.89,259.91 L 641.15,260.90 Z" />
</svg>