<svg xmlns="http://www.w3.org/2000/svg" viewBox="0 0 800 800">
  <path fill="#CCCCCC" stroke="#FFFFFF" stroke-width="1" d="M 537.23,282.12 L 537.58,282.11 L 537.69,282.52 L 537.49,282.76 L 537.36,283.37 L 537.43,284.28 L 537.21,285.19 L 536.84,285.86 L 536.86,286.37 L 536.51,286.75 L 536.12,287.52 L 535.78,287.76 L 535.44,288.58 L 534.97,289.27 L 534.99,290.41 L 535.30,290.69 L 536.26,291.06 L 536.81,290.85 L 537.78,290.78 L 538.26,290.54 L 539.10,290.30 L 539.40,290.41 L 539.54,291.11 L 539.19,291.79 L 538.87,292.15 L 538.74,292.74 L 537.86,293.84 L 537.23,295.01 L 537.06,295.69 L 536.61,295.93 L 536.15,296.57 L 535.62,296.71 L 535.15,297.07 L 534.68,297.19 L 533.76,297.82 L 533.17,298.38 L 532.49,298.79 L 531.51,298.99 L 530.78,298.88 L 530.22,299.07 L 529.82,299.43 L 528.73,299.71 L 527.69,299.47 L 527.30,299.05 L 527.68,298.60 L 529.27,298.35 L 529.76,297.77 L 530.10,297.00 L 530.07,296.55 L 529.74,296.24 L 530.76,295.08 L 531.36,294.87 L 531.82,294.50 L 531.79,293.86 L 531.15,293.24 L 530.61,292.95 L 529.65,293.05 L 529.56,293.39 L 529.22,293.67 L 528.90,294.36 L 528.15,293.94 L 528.25,293.69 L 528.24,292.84 L 527.91,292.41 L 528.45,292.19 L 528.22,291.14 L 528.73,290.64 L 528.54,290.28 L 529.14,289.95 L 529.53,289.35 L 529.55,289.06 L 530.16,288.63 L 530.64,287.59 L 530.83,287.54 L 531.47,286.54 L 532.05,286.44 L 533.38,285.42 L 533.51,285.17 L 534.43,284.70 L 534.74,284.69 L 535.10,284.30 L 535.24,283.91 L 535.12,283.60 L 535.60,282.91 L 536.43,282.26 L 537.23,282.12 Z M 562.22,276.87 L 562.31,277.13 L 562.15,277.85 L 561.84,278.21 L 561.13,278.68 L 560.95,278.30 L 561.07,277.92 L 561.57,277.59 L 561.82,277.12 L 562.22,276.87 Z M 578.34,299.14 L 578.01,299.50 L 575.67,301.43 L 575.67,301.80 L 574.87,302.58 L 574.48,303.18 L 574.69,303.50 L 574.10,303.74 L 573.93,304.04 L 572.79,304.70 L 572.12,304.90 L 572.22,305.22 L 571.98,305.55 L 572.25,306.47 L 572.55,306.63 L 572.77,307.25 L 572.62,308.34 L 573.35,309.11 L 573.26,309.44 L 572.44,309.74 L 571.77,309.50 L 571.06,309.43 L 569.95,309.53 L 569.69,309.77 L 569.03,309.35 L 568.25,309.40 L 567.56,309.61 L 567.33,310.32 L 567.31,311.02 L 567.02,311.21 L 566.29,311.08 L 565.88,310.89 L 564.95,311.27 L 564.51,311.18 L 563.86,311.27 L 563.23,311.53 L 562.48,311.60 L 562.17,311.45 L 561.68,311.71 L 561.01,311.75 L 560.36,312.83 L 560.85,313.44 L 561.50,313.59 L 561.66,314.31 L 561.56,315.00 L 561.26,315.20 L 561.17,316.04 L 560.74,317.03 L 559.70,317.96 L 559.29,318.64 L 560.28,319.72 L 561.43,319.94 L 561.92,320.52 L 562.22,321.19 L 562.02,321.58 L 561.89,322.26 L 561.63,322.92 L 562.27,324.44 L 562.28,325.15 L 561.97,325.84 L 562.23,326.62 L 562.16,327.66 L 561.75,328.22 L 561.36,327.76 L 560.68,327.95 L 559.80,327.66 L 559.65,327.33 L 559.62,326.64 L 558.94,326.22 L 558.16,325.52 L 558.01,325.20 L 557.37,324.64 L 557.03,324.54 L 556.82,325.10 L 556.82,325.83 L 556.55,326.08 L 555.64,326.54 L 555.44,326.81 L 554.76,327.01 L 554.42,326.92 L 553.72,327.18 L 552.68,327.20 L 552.65,328.27 L 553.13,329.81 L 552.97,330.15 L 552.31,329.97 L 551.55,330.01 L 551.13,330.61 L 551.06,331.29 L 551.48,331.89 L 550.90,332.17 L 549.88,332.27 L 548.97,332.74 L 548.25,332.59 L 547.88,332.70 L 548.17,333.37 L 548.06,334.06 L 547.86,334.33 L 547.16,334.45 L 546.72,334.96 L 546.00,334.83 L 545.09,334.39 L 544.70,334.35 L 544.59,334.70 L 544.09,335.21 L 543.67,334.99 L 543.47,334.34 L 542.83,334.00 L 542.96,333.67 L 543.34,333.50 L 543.71,332.85 L 543.31,332.23 L 543.55,331.25 L 543.26,331.02 L 542.59,330.90 L 541.90,330.64 L 541.25,330.21 L 540.98,329.55 L 540.61,329.57 L 539.96,328.85 L 540.10,327.06 L 539.65,326.38 L 539.39,325.79 L 538.29,325.74 L 538.02,325.48 L 537.66,325.51 L 536.79,325.82 L 536.01,325.87 L 534.98,326.25 L 533.70,326.57 L 533.18,327.14 L 532.68,328.05 L 532.47,328.69 L 531.85,329.06 L 531.16,328.97 L 530.46,329.42 L 530.32,329.77 L 530.45,330.39 L 530.27,331.41 L 529.61,331.71 L 529.61,331.34 L 529.13,330.86 L 528.79,330.98 L 527.99,330.97 L 527.69,330.77 L 527.37,331.20 L 525.99,331.66 L 524.98,331.47 L 523.90,331.70 L 523.31,332.16 L 523.00,332.87 L 522.33,333.14 L 522.10,332.80 L 521.66,332.73 L 520.73,332.20 L 521.26,331.70 L 521.12,331.35 L 521.67,330.45 L 521.04,329.69 L 520.13,329.49 L 519.06,329.65 L 518.86,329.38 L 517.90,329.16 L 517.01,329.47 L 516.20,329.28 L 516.09,329.61 L 516.33,331.02 L 515.94,331.33 L 515.82,331.69 L 515.11,332.40 L 515.02,332.79 L 514.50,333.25 L 513.85,333.55 L 513.37,334.01 L 512.71,334.22 L 512.29,333.61 L 512.43,333.28 L 511.90,332.50 L 511.71,331.95 L 511.77,331.25 L 511.55,330.59 L 511.06,330.09 L 511.21,329.57 L 511.20,328.81 L 511.02,328.47 L 510.28,328.37 L 509.34,327.92 L 508.45,327.04 L 508.97,327.01 L 509.87,326.70 L 511.30,326.34 L 512.59,325.84 L 514.21,325.44 L 515.25,324.94 L 517.01,324.56 L 517.66,324.32 L 518.50,323.87 L 518.88,323.48 L 519.18,323.44 L 520.66,322.55 L 521.09,322.59 L 522.07,322.16 L 522.52,321.61 L 523.15,321.21 L 523.63,320.66 L 524.54,320.72 L 524.86,320.94 L 525.49,321.03 L 526.19,320.97 L 526.96,320.74 L 527.66,320.77 L 528.90,320.28 L 530.09,319.52 L 531.76,318.35 L 533.13,317.27 L 535.07,315.61 L 535.32,315.61 L 535.80,315.21 L 536.70,314.83 L 537.63,314.54 L 538.01,314.22 L 538.35,314.24 L 539.22,313.47 L 539.95,312.50 L 540.62,311.42 L 540.99,310.70 L 540.99,310.28 L 541.44,310.20 L 542.01,309.57 L 542.23,309.09 L 542.96,308.49 L 544.17,307.87 L 544.57,307.28 L 544.79,306.76 L 545.24,306.38 L 545.73,305.29 L 546.08,304.69 L 546.60,302.99 L 546.53,302.65 L 546.85,302.09 L 547.12,301.22 L 547.31,300.99 L 547.72,300.00 L 548.47,299.22 L 549.18,298.63 L 551.12,297.49 L 553.93,296.09 L 555.67,295.04 L 556.78,294.56 L 557.78,294.42 L 557.99,294.56 L 559.30,294.05 L 560.47,293.69 L 561.09,293.57 L 561.29,293.16 L 561.87,293.01 L 562.91,292.41 L 564.08,291.58 L 565.30,290.47 L 565.87,289.89 L 567.38,288.04 L 567.95,287.20 L 567.95,286.47 L 568.60,285.44 L 568.36,285.00 L 568.61,284.09 L 568.56,283.33 L 568.69,282.88 L 568.69,281.16 L 568.97,280.56 L 568.81,280.23 L 569.06,279.84 L 569.71,278.53 L 570.22,277.98 L 570.55,277.12 L 570.89,276.73 L 571.95,275.16 L 571.96,275.01 L 572.51,275.23 L 573.80,275.90 L 574.47,275.81 L 575.03,276.28 L 577.10,276.55 L 577.51,276.71 L 577.93,277.09 L 577.51,277.63 L 577.73,278.27 L 577.57,279.30 L 577.26,279.74 L 577.22,280.09 L 577.99,280.45 L 578.07,280.80 L 578.60,281.24 L 579.07,281.27 L 579.37,281.48 L 580.03,281.64 L 580.72,281.45 L 581.36,281.83 L 581.71,281.87 L 582.88,282.74 L 583.02,283.07 L 583.65,283.51 L 583.67,283.87 L 583.10,284.48 L 582.33,285.62 L 581.27,286.03 L 580.02,286.76 L 579.20,286.66 L 578.84,286.82 L 578.43,286.61 L 577.35,286.47 L 576.49,287.56 L 576.76,288.24 L 576.75,289.31 L 576.34,289.93 L 576.18,290.40 L 576.72,290.92 L 576.78,291.40 L 576.26,291.90 L 575.61,292.09 L 575.49,293.16 L 575.05,293.75 L 575.23,294.43 L 575.00,295.47 L 574.75,295.72 L 574.62,296.31 L 574.93,297.06 L 575.58,297.50 L 575.72,297.86 L 576.37,298.19 L 576.83,298.28 L 577.58,298.11 L 577.72,298.49 L 578.34,299.14 Z" />
</svg>