<svg xmlns="http://www.w3.org/2000/svg" viewBox="0 0 800 800">
  <path fill="#CCCCCC" stroke="#FFFFFF" stroke-width="1" d="M 48.36,755.86 L 49.07,756.10 L 49.08,756.34 L 48.62,756.74 L 47.32,756.62 L 47.41,756.15 L 47.96,755.86 L 48.36,755.86 Z M 55.45,749.73 L 55.93,750.02 L 56.27,749.95 L 56.43,750.39 L 55.88,750.92 L 55.44,750.81 L 55.09,750.28 L 55.17,749.92 L 55.45,749.73 Z M 58.29,746.90 L 58.80,747.60 L 58.34,747.91 L 57.94,747.64 L 58.07,747.07 L 58.29,746.90 Z M 54.54,746.44 L 55.14,746.73 L 55.07,746.94 L 55.51,747.35 L 54.42,747.20 L 54.18,746.65 L 54.54,746.44 Z M 46.46,746.09 L 46.89,746.46 L 46.75,746.74 L 46.25,746.38 L 46.46,746.09 Z M 48.04,743.67 L 49.16,744.58 L 49.13,745.04 L 49.34,745.24 L 49.72,745.01 L 49.84,744.71 L 50.91,745.11 L 51.02,744.85 L 51.46,744.97 L 51.65,745.48 L 52.20,745.42 L 52.65,745.71 L 52.83,746.06 L 53.41,746.09 L 53.30,746.68 L 53.00,746.83 L 53.07,747.40 L 52.38,747.70 L 52.09,748.31 L 52.22,749.14 L 51.40,748.88 L 51.57,749.30 L 51.46,749.75 L 50.86,749.78 L 50.27,749.36 L 49.82,749.19 L 48.96,749.30 L 48.46,749.12 L 48.04,749.14 L 47.24,748.97 L 46.64,748.47 L 46.25,748.31 L 46.06,749.03 L 45.35,748.85 L 44.80,748.87 L 44.16,748.02 L 44.43,747.82 L 44.91,747.87 L 44.79,747.42 L 44.97,747.20 L 46.00,747.12 L 46.35,746.84 L 46.75,747.57 L 47.11,747.05 L 46.90,746.87 L 47.21,746.52 L 46.86,746.07 L 47.19,745.75 L 46.83,745.33 L 47.20,745.23 L 47.12,744.86 L 47.90,744.14 L 47.56,743.92 L 48.04,743.67 Z M 22.40,742.49 L 23.53,742.87 L 23.32,743.22 L 22.62,743.72 L 21.61,743.55 L 21.08,743.72 L 20.00,743.39 L 20.26,743.05 L 20.67,742.92 L 20.90,742.55 L 21.23,742.69 L 22.40,742.49 Z M 65.93,737.91 L 66.07,738.06 L 66.71,738.12 L 66.73,738.77 L 66.49,739.35 L 65.90,739.75 L 65.49,740.17 L 65.69,740.55 L 65.21,741.20 L 64.78,741.47 L 64.77,742.05 L 64.11,742.36 L 63.74,742.90 L 64.00,743.49 L 63.75,743.76 L 64.00,744.60 L 63.78,745.19 L 63.85,745.72 L 63.72,746.31 L 63.31,746.80 L 62.94,746.79 L 62.61,746.48 L 62.10,746.48 L 62.13,746.85 L 61.44,747.30 L 60.38,747.25 L 60.17,746.58 L 59.47,746.39 L 59.11,746.11 L 59.34,745.72 L 59.67,745.68 L 60.07,745.24 L 60.14,744.50 L 59.52,744.03 L 59.38,743.80 L 58.86,743.87 L 58.33,744.18 L 57.68,743.90 L 57.99,743.57 L 57.93,743.27 L 58.72,743.19 L 58.94,743.47 L 59.31,743.44 L 59.28,742.87 L 59.81,742.40 L 60.05,742.58 L 60.25,743.07 L 61.35,743.32 L 61.80,743.02 L 62.78,743.13 L 62.91,742.77 L 62.71,742.57 L 63.01,742.00 L 63.63,741.27 L 64.00,740.99 L 64.54,741.46 L 65.00,740.31 L 64.79,739.59 L 65.26,739.34 L 65.73,738.55 L 65.75,737.97 L 65.93,737.91 Z M 78.98,735.70 L 79.60,736.22 L 79.58,736.57 L 79.13,736.98 L 78.25,737.06 L 77.80,736.86 L 77.68,736.28 L 78.02,735.89 L 78.98,735.70 Z M 96.69,733.92 L 97.22,734.29 L 96.71,734.53 L 96.54,734.26 L 96.69,733.92 Z M 78.51,732.91 L 78.81,733.17 L 78.55,733.45 L 78.08,733.10 L 78.51,732.91 Z M 94.10,729.50 L 95.01,729.93 L 95.34,729.99 L 95.70,730.35 L 95.99,730.90 L 95.81,731.44 L 95.27,731.59 L 94.67,731.29 L 94.24,731.59 L 93.43,731.47 L 93.10,730.83 L 93.12,730.50 L 93.55,730.59 L 93.91,730.36 L 93.85,729.64 L 94.10,729.50 Z M 97.46,727.82 L 97.66,728.27 L 97.99,728.56 L 98.22,729.00 L 98.55,729.13 L 98.81,729.73 L 98.79,730.02 L 99.20,730.58 L 99.79,730.95 L 99.67,731.60 L 100.14,731.78 L 100.41,732.05 L 100.86,731.90 L 101.56,732.21 L 101.64,732.52 L 102.01,732.79 L 103.29,733.17 L 103.34,733.41 L 103.78,733.84 L 102.77,734.13 L 101.62,734.04 L 101.34,734.19 L 100.92,734.03 L 100.62,734.24 L 99.59,734.36 L 98.87,734.61 L 98.47,734.33 L 97.63,734.02 L 97.27,733.78 L 97.00,733.15 L 97.96,733.32 L 97.96,732.86 L 97.67,732.39 L 97.20,732.18 L 97.11,731.73 L 97.70,731.46 L 97.87,731.22 L 97.81,730.42 L 98.46,730.12 L 97.72,729.14 L 97.60,728.19 L 97.46,727.82 Z M 96.71,727.05 L 96.99,727.26 L 96.76,727.67 L 96.39,727.42 L 96.71,727.05 Z M 181.28,706.07 L 181.44,706.72 L 180.95,706.75 L 180.92,706.10 L 181.28,706.07 Z M 38.05,700.04 L 38.02,700.43 L 37.62,700.64 L 37.59,700.17 L 38.05,700.04 Z M 295.77,696.04 L 296.65,696.14 L 297.05,696.69 L 296.86,697.45 L 296.49,697.89 L 295.63,698.05 L 295.02,697.69 L 295.17,697.27 L 295.26,696.24 L 295.77,696.04 Z M 297.57,693.14 L 298.52,693.25 L 299.00,693.41 L 298.63,694.15 L 297.88,694.15 L 297.42,693.56 L 297.57,693.14 Z M 185.28,686.09 L 185.14,686.32 L 184.45,686.78 L 184.45,686.47 L 185.28,686.09 Z M 162.99,685.81 L 163.12,686.41 L 162.80,686.34 L 162.99,685.81 Z M 162.94,684.82 L 163.20,685.03 L 163.10,685.47 L 162.62,685.50 L 162.94,684.82 Z M 164.43,684.87 L 164.76,685.21 L 164.47,685.52 L 163.96,685.28 L 164.08,684.88 L 164.43,684.87 Z M 166.96,684.29 L 167.45,684.67 L 167.41,685.34 L 167.05,685.73 L 167.16,686.59 L 166.52,686.44 L 166.31,685.72 L 166.96,684.29 Z M 165.41,683.53 L 165.51,684.24 L 165.14,684.51 L 164.39,684.13 L 165.25,683.83 L 165.41,683.53 Z M 150.22,681.81 L 150.37,682.13 L 149.89,682.28 L 149.87,681.95 L 150.22,681.81 Z M 159.97,679.11 L 160.07,679.76 L 159.61,679.69 L 159.97,679.11 Z M 147.56,678.78 L 147.91,678.90 L 148.28,679.49 L 148.78,679.70 L 148.96,680.66 L 148.66,680.89 L 148.62,681.51 L 148.86,682.02 L 148.43,682.08 L 147.74,681.67 L 147.40,680.95 L 146.69,680.35 L 145.90,680.23 L 145.39,679.59 L 145.61,679.36 L 146.29,679.30 L 147.08,678.85 L 147.56,678.78 Z M 188.29,678.48 L 188.20,679.13 L 187.90,678.99 L 188.29,678.48 Z M 162.89,671.81 L 163.29,672.14 L 163.29,672.44 L 162.54,672.67 L 161.98,672.71 L 162.28,672.07 L 162.89,671.81 Z M 183.85,670.07 L 184.11,670.24 L 183.77,670.74 L 183.48,670.40 L 183.85,670.07 Z M 188.99,669.28 L 188.99,669.46 L 189.46,670.18 L 188.71,670.00 L 188.46,670.15 L 188.08,669.87 L 188.15,669.51 L 188.64,669.25 L 188.99,669.28 Z M 188.87,668.07 L 189.21,668.21 L 188.97,668.77 L 188.64,668.56 L 188.61,668.16 L 188.87,668.07 Z M 182.17,667.42 L 182.63,667.76 L 182.52,668.26 L 181.89,668.39 L 181.40,668.24 L 180.39,668.29 L 179.94,667.81 L 180.31,667.31 L 181.33,667.44 L 181.94,667.27 L 182.17,667.42 Z M 196.85,662.72 L 197.00,663.00 L 198.06,663.83 L 198.37,663.70 L 198.53,664.41 L 198.71,664.53 L 199.05,665.65 L 199.13,666.30 L 198.86,667.12 L 198.86,667.41 L 198.49,667.56 L 198.05,667.97 L 197.73,668.64 L 197.60,669.35 L 197.06,669.92 L 196.62,670.18 L 196.20,670.85 L 195.02,671.07 L 194.28,671.08 L 193.56,670.86 L 193.13,671.11 L 193.46,671.71 L 193.10,671.96 L 192.44,671.80 L 193.14,672.83 L 192.73,673.36 L 191.87,673.56 L 191.32,674.00 L 190.71,673.58 L 190.32,673.50 L 189.48,673.62 L 190.05,674.50 L 189.58,674.53 L 189.15,674.85 L 188.61,674.72 L 188.04,675.03 L 188.41,675.56 L 187.98,676.04 L 187.17,676.27 L 186.73,676.10 L 186.51,676.41 L 186.63,676.64 L 186.41,677.06 L 185.91,677.22 L 185.49,676.96 L 184.86,676.85 L 184.48,676.64 L 183.98,676.61 L 183.45,676.80 L 183.12,677.21 L 182.87,677.99 L 182.97,678.26 L 183.88,678.89 L 184.27,679.25 L 184.09,679.88 L 184.57,680.48 L 185.07,680.79 L 186.03,680.77 L 186.46,680.53 L 186.42,679.94 L 187.25,679.76 L 187.48,679.23 L 187.99,679.20 L 188.17,679.77 L 187.56,680.03 L 186.91,680.64 L 186.55,680.52 L 185.94,680.83 L 185.24,680.81 L 185.70,681.45 L 185.71,681.99 L 184.72,681.51 L 184.15,680.89 L 183.71,680.79 L 183.25,681.32 L 182.63,681.42 L 182.56,681.76 L 182.07,681.82 L 182.22,682.37 L 182.07,682.69 L 181.59,682.98 L 181.31,683.56 L 181.25,684.31 L 180.94,684.58 L 180.35,684.84 L 180.66,685.16 L 180.96,685.80 L 182.14,685.48 L 182.67,685.96 L 182.31,686.58 L 181.94,686.76 L 181.39,687.33 L 180.83,687.33 L 180.58,687.61 L 179.78,687.99 L 179.45,688.55 L 179.14,688.83 L 178.61,688.82 L 177.86,689.12 L 177.67,689.35 L 176.92,689.13 L 176.94,688.42 L 177.13,688.01 L 177.09,687.43 L 176.75,687.43 L 176.59,687.02 L 176.89,686.45 L 176.62,686.21 L 176.67,685.83 L 176.22,685.20 L 176.61,684.61 L 177.07,684.59 L 177.52,684.33 L 177.79,683.62 L 178.71,682.69 L 179.18,682.72 L 179.41,682.40 L 180.21,681.97 L 180.30,681.56 L 179.71,680.82 L 179.74,680.42 L 179.60,679.77 L 179.04,678.85 L 178.76,678.15 L 178.79,677.16 L 179.14,677.19 L 179.52,677.76 L 180.43,677.28 L 180.70,676.99 L 181.19,677.35 L 181.55,677.32 L 181.76,676.69 L 183.14,675.83 L 182.96,675.36 L 183.06,675.08 L 184.09,674.76 L 184.40,675.10 L 184.63,674.84 L 185.67,674.34 L 186.10,673.93 L 186.46,673.99 L 187.42,673.28 L 187.71,672.71 L 187.71,672.39 L 187.35,672.18 L 186.73,672.04 L 186.44,671.79 L 185.63,671.58 L 185.35,671.87 L 184.79,671.68 L 184.79,671.39 L 184.28,670.62 L 184.30,670.02 L 184.67,669.92 L 184.58,669.47 L 184.12,669.10 L 184.32,668.23 L 185.24,668.56 L 186.59,668.27 L 186.95,668.32 L 187.72,668.77 L 188.47,668.94 L 188.08,669.47 L 187.99,670.31 L 188.70,670.79 L 189.20,670.93 L 189.42,670.69 L 190.08,670.71 L 190.66,670.39 L 191.03,670.33 L 191.65,669.54 L 192.26,669.91 L 192.36,669.71 L 191.70,669.38 L 191.64,669.22 L 192.21,668.42 L 193.05,668.27 L 193.59,667.82 L 193.39,667.20 L 194.30,666.94 L 194.57,666.53 L 195.53,665.76 L 195.75,665.49 L 196.17,664.64 L 196.69,663.80 L 196.39,663.30 L 196.47,662.98 L 196.85,662.72 Z M 186.22,660.06 L 186.85,660.44 L 186.88,660.74 L 186.64,661.16 L 186.72,661.47 L 186.25,661.56 L 185.71,661.31 L 185.60,660.31 L 186.22,660.06 Z M 189.02,655.52 L 188.43,655.97 L 187.99,657.14 L 187.30,657.30 L 187.17,657.78 L 186.51,657.95 L 186.21,658.58 L 186.03,657.89 L 186.49,657.45 L 186.66,657.09 L 187.14,656.73 L 187.30,656.38 L 187.88,656.07 L 188.15,655.61 L 189.02,655.52 Z" />
</svg>