<svg xmlns="http://www.w3.org/2000/svg" viewBox="0 0 800 800">
  <path fill="#CCCCCC" stroke="#FFFFFF" stroke-width="1" d="M 397.75,441.06 L 397.25,440.79 L 396.86,440.77 L 396.19,441.00 L 395.31,440.83 L 394.70,440.58 L 394.20,440.75 L 393.85,439.90 L 392.88,439.07 L 392.72,438.40 L 393.35,438.06 L 393.52,437.64 L 393.34,437.13 L 393.52,436.84 L 393.13,436.52 L 392.42,436.53 L 391.80,436.26 L 389.81,436.43 L 389.95,435.12 L 389.58,434.35 L 389.65,433.63 L 388.80,432.49 L 388.80,431.85 L 388.12,432.07 L 387.61,432.10 L 387.18,431.44 L 386.21,431.78 L 386.04,432.51 L 385.81,432.77 L 384.41,433.00 L 384.22,432.70 L 383.45,432.60 L 382.83,431.69 L 382.36,431.34 L 382.00,431.30 L 381.65,431.56 L 380.66,431.59 L 380.36,431.40 L 379.31,431.57 L 378.75,431.11 L 377.67,431.08 L 377.04,430.84 L 376.49,430.43 L 376.41,430.09 L 377.00,429.67 L 376.94,429.33 L 377.37,428.81 L 377.23,428.33 L 377.48,428.00 L 377.37,427.35 L 376.91,426.66 L 376.98,426.34 L 377.40,425.71 L 378.15,425.58 L 378.44,425.41 L 378.68,424.69 L 379.68,424.11 L 380.37,423.50 L 381.01,423.85 L 381.69,423.62 L 381.82,423.07 L 382.49,422.98 L 383.11,422.66 L 383.45,422.81 L 384.13,422.57 L 384.38,422.79 L 385.10,422.36 L 385.44,422.31 L 386.08,423.16 L 386.88,423.67 L 387.68,423.67 L 387.70,423.65 L 387.88,423.36 L 388.59,423.28 L 389.35,422.25 L 389.66,422.40 L 390.56,422.21 L 390.87,422.35 L 391.76,422.21 L 392.30,421.73 L 392.20,421.13 L 392.68,420.64 L 393.45,420.32 L 394.02,420.41 L 395.30,420.16 L 396.33,420.07 L 397.04,420.26 L 397.38,420.20 L 397.56,420.51 L 398.34,420.33 L 399.08,420.42 L 399.55,420.00 L 400.78,420.72 L 401.11,420.60 L 401.38,420.82 L 402.10,420.51 L 401.97,420.18 L 402.27,419.81 L 402.36,419.17 L 403.36,419.08 L 404.09,418.60 L 405.53,418.52 L 406.20,418.68 L 406.59,418.13 L 407.11,418.07 L 407.23,418.59 L 406.97,419.01 L 407.12,419.37 L 407.92,419.70 L 408.38,420.06 L 408.86,420.23 L 408.13,421.23 L 407.49,422.66 L 407.75,422.71 L 407.67,423.21 L 407.17,424.20 L 407.35,424.52 L 407.14,425.06 L 407.57,425.47 L 407.29,425.58 L 407.45,426.00 L 408.03,426.18 L 408.20,426.46 L 408.60,426.26 L 408.40,425.77 L 408.72,425.70 L 409.01,425.93 L 409.54,426.99 L 409.86,427.33 L 410.31,427.40 L 410.78,427.71 L 410.97,428.50 L 410.83,429.15 L 410.34,429.64 L 409.27,430.36 L 408.72,430.46 L 409.07,431.02 L 409.89,431.08 L 410.45,430.93 L 411.15,431.01 L 411.72,431.53 L 412.14,431.36 L 412.52,431.54 L 411.82,431.93 L 409.71,432.70 L 408.90,433.17 L 408.29,433.16 L 407.63,433.61 L 406.81,433.99 L 406.43,434.95 L 405.66,434.80 L 405.66,435.38 L 404.54,436.08 L 403.12,436.67 L 402.18,437.26 L 401.51,437.16 L 401.04,437.37 L 400.42,437.98 L 399.87,438.25 L 400.48,438.49 L 400.32,438.87 L 399.65,439.40 L 399.67,439.97 L 398.90,440.07 L 398.52,439.94 L 397.89,440.21 L 397.89,440.56 L 398.19,440.77 L 397.75,441.06 Z M 407.76,417.69 L 408.04,417.73 L 408.17,418.36 L 408.69,418.32 L 408.81,418.58 L 408.43,419.28 L 408.41,419.85 L 407.99,419.58 L 407.38,419.44 L 407.37,419.13 L 407.83,418.88 L 408.11,418.43 L 407.76,418.36 L 407.55,418.72 L 407.13,418.36 L 407.32,417.98 L 407.76,417.69 Z" />
</svg>